<svg width="20" height="20" fill="none" xmlns="http://www.w3.org/2000/svg">
    <path fill-rule="evenodd" clip-rule="evenodd"
          d="M6 6a1 1 0 01-1-1V1a1 1 0 011-1h13a1 1 0 011 1v18a1 1 0 01-1 1H6a1 1 0 01-1-1v-4a1 1 0 112 0v2a1 1 0 001 1h9a1 1 0 001-1V3a1 1 0 00-1-1H8a1 1 0 00-1 1v2a1 1 0 01-1 1z"
          fill="currentColor"/>
    <path fill-rule="evenodd" clip-rule="evenodd"
          d="M11.586 11H1a1 1 0 110-2h10.586L10.5 7.914A1 1 0 0111.914 6.5l2.793 2.793a1 1 0 010 1.414L11.914 13.5a1 1 0 01-1.414-1.414L11.586 11z"
          fill="currentColor"/>
</svg>