<svg width="30" height="22" viewBox="0 0 30 22" fill="none" xmlns="http://www.w3.org/2000/svg">
    <path d="M12.7044 13.5796C12.265 14.019 12.265 14.7313 12.7044 15.1706C12.9241 15.3903 13.212 15.5002 13.4998 15.5002C13.7878 15.5002 14.0757 15.3904 14.2953 15.1706L17.6701 11.7958C17.6964 11.7695 17.7214 11.7419 17.7449 11.7131C17.7552 11.7006 17.7641 11.6873 17.7738 11.6745C17.7862 11.658 17.7989 11.6419 17.8104 11.6247C17.8209 11.609 17.83 11.5927 17.8396 11.5767C17.8488 11.5612 17.8585 11.5462 17.867 11.5303C17.8759 11.5138 17.8833 11.4968 17.8912 11.48C17.899 11.4636 17.9072 11.4474 17.9142 11.4306C17.9209 11.4142 17.9264 11.3974 17.9324 11.3808C17.9389 11.3628 17.9458 11.345 17.9514 11.3266C17.9564 11.31 17.9601 11.2931 17.9643 11.2762C17.969 11.2576 17.9743 11.239 17.9781 11.2199C17.9819 11.2005 17.9842 11.1808 17.987 11.1613C17.9894 11.1445 17.9926 11.128 17.9943 11.1111C17.9979 11.0748 17.9998 11.0383 17.9998 11.0018C17.9998 11.0013 17.9999 11.0007 17.9999 11.0002C17.9999 10.9996 17.9998 10.999 17.9998 10.9985C17.9998 10.962 17.9979 10.9255 17.9943 10.8892C17.9926 10.8724 17.9895 10.8562 17.9872 10.8396C17.9843 10.8198 17.982 10.8 17.9781 10.7803C17.9743 10.7614 17.9692 10.7431 17.9644 10.7246C17.9602 10.7076 17.9564 10.6904 17.9513 10.6735C17.9458 10.6555 17.939 10.638 17.9326 10.6202C17.9266 10.6033 17.921 10.5862 17.9141 10.5696C17.9073 10.5531 17.8992 10.5373 17.8916 10.5212C17.8835 10.504 17.8759 10.4867 17.8669 10.4698C17.8586 10.4545 17.8492 10.4398 17.8403 10.4249C17.8304 10.4083 17.8211 10.3916 17.8103 10.3755C17.7994 10.3591 17.7871 10.3437 17.7754 10.3279C17.7652 10.3143 17.7557 10.3003 17.7449 10.2871C17.7224 10.2598 17.6986 10.2336 17.6737 10.2085C17.6725 10.2073 17.6716 10.2059 17.6704 10.2047L14.2954 6.82964C13.856 6.39029 13.1437 6.39036 12.7044 6.82964C12.265 7.26899 12.265 7.98126 12.7044 8.42061L14.1589 9.87524H1.125C0.5037 9.87524 0 10.3789 0 11.0002C0 11.6215 0.5037 12.1252 1.125 12.1252H14.1589L12.7044 13.5796Z"
          fill="currentColor"/>
    <path d="M22.875 0.875H8.625C8.0037 0.875 7.5 1.3787 7.5 2V6.5C7.5 7.1213 8.0037 7.625 8.625 7.625C9.2463 7.625 9.75 7.1213 9.75 6.5V3.125H21.75V18.875H9.75V15.4999C9.75 14.8786 9.2463 14.3749 8.625 14.3749C8.0037 14.3749 7.5 14.8786 7.5 15.4999V20C7.5 20.6213 8.0037 21.125 8.625 21.125H22.875C23.4963 21.125 24 20.6213 24 20V2C24 1.37863 23.4963 0.875 22.875 0.875Z"
          fill="currentColor"/>
</svg>
