<svg width="24" height="24" viewBox="0 0 24 24" fill="none" xmlns="http://www.w3.org/2000/svg">
    <path d="M24 12C24 5.38342 18.6166 0 12 0C5.38342 0 0 5.38342 0 12C0 15.4948 1.50284 18.6449 3.89498 20.8399L3.88364 20.8499L4.27287 21.178C4.29818 21.1994 4.32567 21.2169 4.35098 21.2378C4.55782 21.4093 4.77207 21.5721 4.99025 21.7296C5.06095 21.7807 5.13164 21.8317 5.20364 21.8815C5.43666 22.042 5.67578 22.1943 5.92015 22.3388C5.97338 22.3702 6.02705 22.4007 6.08073 22.4313C6.34822 22.5836 6.62138 22.7271 6.90109 22.8589C6.9216 22.8685 6.94255 22.8772 6.96305 22.8868C7.87462 23.3105 8.84771 23.6217 9.86531 23.8054C9.89193 23.8102 9.91854 23.815 9.9456 23.8198C10.2615 23.8743 10.5809 23.918 10.9043 23.9472C10.9436 23.9507 10.9828 23.9529 11.0225 23.9564C11.3446 23.983 11.6701 24 12 24C12.3268 24 12.6493 23.983 12.9696 23.9572C13.0102 23.9537 13.0508 23.9516 13.0913 23.9481C13.4121 23.9188 13.7289 23.8765 14.0417 23.8228C14.0688 23.818 14.0963 23.8132 14.1233 23.808C15.1257 23.6282 16.0848 23.3241 16.9846 22.9113C17.0177 22.896 17.0513 22.8816 17.0845 22.8659C17.3537 22.7393 17.6169 22.6028 17.8748 22.4575C17.9389 22.4212 18.0026 22.3846 18.0663 22.3471C18.3011 22.2087 18.5319 22.0643 18.7562 21.9107C18.8369 21.8557 18.9159 21.7977 18.9958 21.7401C19.1873 21.6022 19.3754 21.4599 19.5583 21.3111C19.5988 21.2784 19.6425 21.25 19.6822 21.2164L20.0815 20.8831L20.0697 20.873C22.4828 18.6772 24 15.5127 24 12ZM0.872727 12C0.872727 5.86429 5.86429 0.872727 12 0.872727C18.1357 0.872727 23.1273 5.86429 23.1273 12C23.1273 15.3063 21.6764 18.2788 19.3793 20.3184C19.2511 20.2298 19.1219 20.1504 18.9897 20.0841L15.295 18.2369C14.9633 18.0711 14.7574 17.7377 14.7574 17.3673V16.0769C14.8429 15.9713 14.9332 15.8518 15.0266 15.7204C15.5049 15.0449 15.8884 14.2935 16.1681 13.4849C16.721 13.2223 17.078 12.6716 17.078 12.0497V10.5028C17.078 10.1245 16.9392 9.75753 16.6909 9.46909V7.43258C16.7136 7.20567 16.7939 5.928 15.8692 4.87375C15.065 3.95564 13.7633 3.49091 12 3.49091C10.2367 3.49091 8.93498 3.95564 8.13076 4.87331C7.20611 5.92756 7.2864 7.20611 7.30909 7.43215V9.46865C7.06124 9.75709 6.92204 10.1241 6.92204 10.5024V12.0493C6.92204 12.5297 7.1376 12.9779 7.50676 13.2803C7.86022 14.6649 8.58764 15.713 8.85644 16.0682V17.3311C8.85644 17.6871 8.66226 18.0144 8.34938 18.1855L4.89905 20.0675C4.78909 20.1273 4.68 20.1971 4.57091 20.2752C2.30225 18.2365 0.872727 15.2823 0.872727 12Z"
          fill="currentColor"/>
</svg>
