<svg viewBox="0 0 361 142" xmlns="http://www.w3.org/2000/svg" fill-rule="evenodd" clip-rule="evenodd"
     stroke-linejoin="round" stroke-miterlimit="2"
     fill="currentColor">
    <path d="M360.676.001H0V141.93h360.677V0zM14.583 14.584v112.762h331.51V14.584H14.584z"/>
    <path d="M43.06 116.131V25.756h18.875v77.5h40.625v12.875h-59.5zM115.753 116.131V25.756h56.5v12.375h-37.625v25.25h30.875v12.125h-30.875v27.75h40.5v12.875h-59.375zM185.826 115.381v-15.5c9.75 4 18 6 25 6 4.75 0 8.625-1 11.375-3.125 2.75-2.25 4.25-5.125 4.25-8.875 0-2.875-.875-5.375-2.625-7.375s-5.125-4.375-10-7.125l-6-3.375c-8.125-4.625-13.875-9-17.25-13.125-3.25-4.125-5-9-5-14.625 0-7.5 2.75-13.375 8.25-18 5.5-4.5 12.75-6.75 21.75-6.75 7.125 0 15.25 1.125 24.25 3.125v14.5c-9.125-3.5-16.5-5.25-21.875-5.25-4.125 0-7.5 1-10 2.875-2.5 1.75-3.75 4.25-3.75 7.25 0 2.5.875 4.625 2.625 6.5s5.125 4.25 9.875 6.875l6.5 3.625c8.75 4.875 14.75 9.375 18 13.5 3.375 4.125 5 9.125 5 15 0 8.375-3.125 15-9.375 19.75s-14.75 7.125-25.75 7.125c-7.25 0-15.625-1-25.25-3zM257.237 115.381v-15.5c9.75 4 18 6 25 6 4.75 0 8.625-1 11.375-3.125 2.75-2.25 4.25-5.125 4.25-8.875 0-2.875-.875-5.375-2.625-7.375s-5.125-4.375-10-7.125l-6-3.375c-8.125-4.625-13.875-9-17.25-13.125-3.25-4.125-5-9-5-14.625 0-7.5 2.75-13.375 8.25-18 5.5-4.5 12.75-6.75 21.75-6.75 7.125 0 15.25 1.125 24.25 3.125v14.5c-9.125-3.5-16.5-5.25-21.875-5.25-4.125 0-7.5 1-10 2.875-2.5 1.75-3.75 4.25-3.75 7.25 0 2.5.875 4.625 2.625 6.5s5.125 4.25 9.875 6.875l6.5 3.625c8.75 4.875 14.75 9.375 18 13.5 3.375 4.125 5 9.125 5 15 0 8.375-3.125 15-9.375 19.75s-14.75 7.125-25.75 7.125c-7.25 0-15.625-1-25.25-3z"
          fill-rule="nonzero"
          fill="currentColor"/>
</svg>