<svg width="20" height="20" viewBox="0 0 24 24" fill="none" xmlns="http://www.w3.org/2000/svg">
    <path d="M0 12.0722C0.0013962 18.0118 4.29393 23.0691 10.124 24V15.5616H7.07975V12.0722H10.1276V9.41597C9.9914 8.15731 10.4187 6.9029 11.2936 5.99294C12.1685 5.08298 13.4004 4.61179 14.6551 4.70715C15.5557 4.72179 16.4541 4.80249 17.343 4.94863V7.9176H15.8263C15.3041 7.84878 14.7791 8.0223 14.3992 8.38928C14.0193 8.75626 13.8256 9.27698 13.8727 9.80474V12.0722H17.1978L16.6662 15.5628H13.8727V24C20.1779 22.9974 24.5993 17.2033 23.9338 10.8154C23.2683 4.42748 17.7489 -0.31808 11.3742 0.0166677C4.99946 0.351415 0.00101334 5.64929 0 12.0722Z"
          fill="currentColor"/>
</svg>
