<svg width="20" height="20" viewBox="0 0 19 17" fill="none" xmlns="http://www.w3.org/2000/svg">
    <path d="M2 17.001H0C0 13.6873 2.68629 11.001 6 11.001C9.31371 11.001 12 13.6873 12 17.001H10C10 14.7918 8.20914 13.001 6 13.001C3.79086 13.001 2 14.7918 2 17.001ZM16.364 13.364L14.95 11.95C16.2629 10.6372 17.0005 8.85663 17.0005 6.99999C17.0005 5.14335 16.2629 3.36276 14.95 2.04999L16.364 0.635986C19.8781 4.1506 19.8781 9.84837 16.364 13.363V13.364ZM13.535 10.536L12.121 9.11999C13.2908 7.94872 13.2908 6.05126 12.121 4.87999L13.535 3.46299C15.4876 5.4156 15.4876 8.58137 13.535 10.534V10.536ZM6 9.99999C3.79086 9.99999 2 8.20913 2 5.99999C2 3.79085 3.79086 1.99999 6 1.99999C8.20914 1.99999 10 3.79085 10 5.99999C10 7.06085 9.57857 8.07827 8.82843 8.82841C8.07828 9.57856 7.06087 9.99999 6 9.99999ZM6 3.99999C4.9074 4.00109 4.01789 4.87883 4.00223 5.97133C3.98658 7.06382 4.85057 7.96669 5.94269 7.9991C7.03481 8.03152 7.95083 7.18148 8 6.08999V6.48999V5.99999C8 4.89542 7.10457 3.99999 6 3.99999Z"
          fill="currentColor"/>
</svg>
