<svg width="20" height="20" viewBox="0 0 23 19" fill="none" xmlns="http://www.w3.org/2000/svg">
    <path d="M19.9918 2.90247C20.963 2.3219 21.6896 1.40772 22.0361 0.330633C21.1235 0.872086 20.1251 1.2535 19.084 1.45838C17.6405 -0.0685457 15.3536 -0.440131 13.5009 0.55126C11.6483 1.54265 10.6887 3.65158 11.1583 5.69963C7.42041 5.51197 3.93788 3.74629 1.57733 0.841966C0.34541 2.96684 0.974949 5.68315 3.016 7.04947C2.27794 7.02574 1.55624 6.82591 0.911083 6.46663C0.911083 6.48613 0.911083 6.50563 0.911083 6.52513C0.91151 8.73855 2.47149 10.6451 4.641 11.0838C3.9564 11.2701 3.23831 11.2975 2.5415 11.164C3.15163 13.0568 4.89618 14.3536 6.88458 14.3923C5.23773 15.6849 3.20393 16.3858 1.11042 16.3824C0.739343 16.3829 0.368561 16.3616 0 16.3185C2.12592 17.6846 4.60023 18.4097 7.12725 18.4071C10.6429 18.4313 14.0216 17.0453 16.5075 14.5592C18.9935 12.073 20.3792 8.69423 20.3547 5.17855C20.3547 4.97705 20.3501 4.77663 20.3407 4.5773C21.2512 3.91928 22.037 3.10413 22.6612 2.17013C21.8129 2.54612 20.9132 2.79297 19.9918 2.90247Z"
          fill="currentColor"/>
</svg>
